<svg width="800" height="973" viewBox="0 0 800 973" fill="none" xmlns="http://www.w3.org/2000/svg">
<g filter="url(#filter0_d_1755_5)">
<path d="M4 0V883.22C4 928.386 40.6313 965 85.8182 965H108.632C153.819 965 190.45 928.386 190.45 883.22V558.251L12.1818 9.81356L328.775 544.909C360.632 598.751 438.709 598.366 470.033 544.212L609.55 303.003V883.22C609.55 928.386 646.181 965 691.368 965H714.182C759.369 965 796 928.386 796 883.22V81.7797C796 36.614 759.369 0 714.182 0H630.745C602.211 0 575.737 14.8592 560.885 39.2121L414.035 279.991C407.643 290.472 392.407 290.442 386.057 279.936L240.72 39.4902C225.904 14.9793 199.341 0 170.69 0H4Z" fill="url(#paint0_linear_1755_5)"/>
<path d="M170.69 1C198.991 1.00006 225.23 15.7967 239.864 40.0078L385.201 280.453C391.94 291.601 408.106 291.633 414.889 280.512L561.738 39.7324C576.409 15.6776 602.559 1.00011 630.745 1H714.182C758.817 1 795 37.1665 795 81.7793V883.221C795 927.833 758.817 964 714.182 964H691.368C646.733 964 610.55 927.833 610.55 883.221V299.277L608.685 302.503L469.167 543.711C438.227 597.203 361.103 597.584 329.636 544.399L13.042 9.30469L11.2305 10.123L189.45 558.409V883.221C189.45 927.833 153.267 964 108.632 964H85.8184C41.1834 964 5.0002 927.833 5 883.221V1H170.69Z" stroke="#7B97C4" stroke-width="2"/>
<path d="M170.69 1C198.991 1.00006 225.23 15.7967 239.864 40.0078L385.201 280.453C391.94 291.601 408.106 291.633 414.889 280.512L561.738 39.7324C576.409 15.6776 602.559 1.00011 630.745 1H714.182C758.817 1 795 37.1665 795 81.7793V883.221C795 927.833 758.817 964 714.182 964H691.368C646.733 964 610.55 927.833 610.55 883.221V299.277L608.685 302.503L469.167 543.711C438.227 597.203 361.103 597.584 329.636 544.399L13.042 9.30469L11.2305 10.123L189.45 558.409V883.221C189.45 927.833 153.267 964 108.632 964H85.8184C41.1834 964 5.0002 927.833 5 883.221V1H170.69Z" stroke="url(#paint1_linear_1755_5)" stroke-width="2"/>
</g>
<defs>
<filter id="filter0_d_1755_5" x="0" y="0" width="800" height="973" filterUnits="userSpaceOnUse" color-interpolation-filters="sRGB">
<feFlood flood-opacity="0" result="BackgroundImageFix"/>
<feColorMatrix in="SourceAlpha" type="matrix" values="0 0 0 0 0 0 0 0 0 0 0 0 0 0 0 0 0 0 127 0" result="hardAlpha"/>
<feOffset dy="4"/>
<feGaussianBlur stdDeviation="2"/>
<feColorMatrix type="matrix" values="0 0 0 0 0 0 0 0 0 0 0 0 0 0 0 0 0 0 0.25 0"/>
<feBlend mode="normal" in2="BackgroundImageFix" result="effect1_dropShadow_1755_5"/>
<feBlend mode="normal" in="SourceGraphic" in2="effect1_dropShadow_1755_5" result="shape"/>
</filter>
<linearGradient id="paint0_linear_1755_5" x1="400" y1="-13.0847" x2="400" y2="965" gradientUnits="userSpaceOnUse">
<stop offset="0.0391901" stop-color="#2BCBDE"/>
<stop offset="1" stop-color="#5E7BE9"/>
</linearGradient>
<linearGradient id="paint1_linear_1755_5" x1="400" y1="0" x2="395.096" y2="1007.53" gradientUnits="userSpaceOnUse">
<stop offset="0.352186" stop-opacity="0"/>
<stop offset="0.48718" stop-color="#BFBFBF"/>
<stop offset="0.620192" stop-color="#FCFCFC"/>
<stop offset="0.792499" stop-color="#9B9191" stop-opacity="0.69"/>
<stop offset="0.942488" stop-color="white"/>
<stop offset="0.966715" stop-opacity="0"/>
<stop offset="0.997588" stop-opacity="0.54"/>
</linearGradient>
</defs>
</svg>
